<svg width="256px" height="256px" viewBox="0 0 24.00 24.00" xmlns="http://www.w3.org/2000/svg" fill="#ffffff" stroke="#ffffff" stroke-width="0.00024000000000000003"><g id="SVGRepo_bgCarrier" stroke-width="0"><rect x="0" y="0" width="24.00" height="24.00" rx="12" fill="#000000" strokewidth="0"></rect></g><g id="SVGRepo_tracerCarrier" stroke-linecap="round" stroke-linejoin="round"></g><g id="SVGRepo_iconCarrier"> <title>registered_trademark</title> <rect width="24" height="24" fill="none"></rect> <path d="M12,2A10,10,0,1,0,22,12,10,10,0,0,0,12,2m0,18a8,8,0,1,1,8-8,8,8,0,0,1-8,8m.25-6.73H10.81V16.5H9V7.71h3.26a3.73,3.73,0,0,1,2.4.69,2.39,2.39,0,0,1,.84,2,2.7,2.7,0,0,1-.39,1.5,2.59,2.59,0,0,1-1.18,1l1.9,3.59v.1H13.89l-1.64-3.23m-1.44-1.46h1.46a1.5,1.5,0,0,0,1.05-.35,1.24,1.24,0,0,0,.37-1,1.3,1.3,0,0,0-.35-1,1.43,1.43,0,0,0-1.08-.35H10.81Z"></path> </g></svg>